<svg xmlns="http://www.w3.org/2000/svg" viewBox="0 0 64 64" role="img" aria-label="Comic book">
  <!-- Page stack (fills most of the canvas) -->
  <rect x="8" y="4" width="50" height="56" rx="4" fill="#f4f1ea"/>
  <rect x="10" y="6" width="50" height="56" rx="4" fill="#fff8ef"/>
  <!-- Cover -->
  <rect x="4" y="2" width="50" height="56" rx="4" fill="#4f46e5"/>
  <!-- Spine -->
  <rect x="4" y="2" width="9" height="56" rx="3" fill="#312e81"/>
  <!-- Cover art panel -->
  <rect x="18" y="10" width="30" height="24" rx="3" fill="#fbbf24"/>
  <!-- Action burst -->
  <path fill="#dc2626" d="M33 18l3.2 6.6 7.2.9-5.3 4.9 1.3 7.1-6.4-3.6-6.4 3.6 1.3-7.1-5.3-4.9 7.2-.9z"/>
  <!-- Title lines -->
  <rect x="18" y="40" width="30" height="4" rx="2" fill="#c7d2fe"/>
  <rect x="18" y="48" width="22" height="4" rx="2" fill="#c7d2fe"/>
  <!-- Speech bubble -->
  <path fill="#ffffff" d="M42 52c6 0 11-3.2 11-7.2S48 37.6 42 37.6s-11 3.2-11 7.2c0 2.2 1.5 4.2 3.9 5.5L34 58l5.8-3.2c.7.1 1.4.2 2.2.2z"/>
  <circle cx="38.5" cy="45" r="1.6" fill="#4f46e5"/>
  <circle cx="42.5" cy="45" r="1.6" fill="#4f46e5"/>
  <circle cx="46.5" cy="45" r="1.6" fill="#4f46e5"/>
</svg>
